<svg xmlns="http://www.w3.org/2000/svg" xmlns:xlink="http://www.w3.org/1999/xlink" viewBox="322 -7 200 200">
  <path d="M416.9 93.8l-19.2 20.4c-8.4 8.6-13.3 20.1-13.7 32.2v1.8c0 4.4.6 8.7 1.7 12.9l1.4 4.4 40.5-41.2c10.6-10.5 10.6-27.6 0-38.2l-5-5-2.1-2.3a17.5 17.5 0 0 1-3.6 15m-31-89.5c-1.9 8.8-1.5 18 1 26.6 3.4 11.8 13 22.7 13 22.7l40 40.2c4.1 4.1 5.8 9.9 4.7 15.5l1.8-2 5.1-5c4.4-4.4 7.2-10.3 7.8-16.5.1-.8.1-1.7.1-2.5v-.2c0-7.1-2.9-14-7.9-19L386.7 0l-.8 4.3z" fill="#93d500"/>
  <defs><path id="A" d="M416.9 93.8l-19.2 20.4c-8.4 8.6-13.3 20.1-13.7 32.2v1.8c0 4.4.6 8.7 1.7 12.9l1.4 4.4 40.5-41.2c10.5-10.5 10.5-27.6 0-38.2l-5-5-2.1-2.3c1.2 5.4-.1 10.9-3.6 15"/></defs>
  <clipPath id="B"><use xlink:href="#A"/></clipPath>
  <g clip-path="url(#B)"><linearGradient id="C" x1="375.782" x2="430.384" y1="167.621" y2="95.685" gradientUnits="userSpaceOnUse"><stop offset="0" stop-color="#006d46" stop-opacity="0"/><stop offset=".17" stop-color="#006d46" stop-opacity=".05"/><stop offset=".37" stop-color="#006d46" stop-opacity=".18"/><stop offset=".59" stop-color="#006d46" stop-opacity=".41"/><stop offset=".83" stop-color="#006d46" stop-opacity=".72"/><stop offset="1" stop-color="#006d46"/></linearGradient><path fill="url(#C)" d="M342.3 134l60.8-80.1 74.9 56.8-60.9 80.1z"/></g>
  <defs><path id="D" d="M385.9 4.3c-1.9 8.8-1.5 18 1 26.6 3.4 11.8 13 22.7 13 22.7l40 40.2c4.1 4.1 5.8 9.9 4.7 15.5l1.8-2 5.1-5.1c4.4-4.4 7.2-10.3 7.8-16.5.1-.8.1-1.7.1-2.5V83c0-7.1-2.9-14-7.9-19L386.7 0l-.8 4.3z"/></defs>
  <clipPath id="E"><use xlink:href="#D"/></clipPath>
  <g clip-path="url(#E)"><linearGradient id="F" x1="448.666" x2="393.265" y1="86.448" y2="22.717" gradientUnits="userSpaceOnUse"><stop offset="0" stop-color="#006d46" stop-opacity="0"/><stop offset=".17" stop-color="#006d46" stop-opacity=".05"/><stop offset=".37" stop-color="#006d46" stop-opacity=".18"/><stop offset=".59" stop-color="#006d46" stop-opacity=".41"/><stop offset=".83" stop-color="#006d46" stop-opacity=".72"/><stop offset="1" stop-color="#006d46"/></linearGradient><path fill="url(#F)" d="M328.5 47.1L426.4-38l87.2 100.3-97.9 85.1z"/></g>
</svg>
